<?xml version="1.0" encoding="UTF-8"?>
<svg id="b" data-name="Layer 2" xmlns="http://www.w3.org/2000/svg" viewBox="0 0 138.86 38.95">
  <g id="c" data-name="Layer 1">
    <path d="m29.24,10.17s6.25-13.22-13.89-5.14l1.63,2.92-7.14-.87L12.29.25l1.59,2.63s23.19-10.02,15.36,7.29Z" fill="#323337" stroke-width="0"/>
    <path d="m9.74,8.58s-15.72,13.54-1.34,14.5c0,0-18.88-.33-.03-16.71l-.6,1.75,1.97.46Z" fill="#323337" stroke-width="0"/>
    <path d="m24.01,28.58c-.39.86-.93,1.59-1.64,2.19-.71.6-1.56,1.05-2.56,1.36-1,.31-2.1.46-3.32.46-.62,0-1.3-.06-2.06-.18-.75-.12-1.4-.3-1.96-.55l-.43-4.25c.51.28,1.07.49,1.68.66.61.16,1.23.24,1.87.24.49,0,.95-.06,1.39-.18.44-.12.83-.3,1.18-.55.34-.24.61-.56.81-.94.2-.39.3-.83.3-1.34,0-.81-.32-1.49-.96-2.04-.64-.54-1.42-.81-2.32-.81-.11,0-.2,0-.28.02-.08,0-.19.03-.35.05l-.79-3.54c.93-.18,1.71-.49,2.35-.94.64-.45.96-.99.96-1.6,0-.53-.19-.96-.58-1.27-.39-.32-.89-.48-1.51-.48-.58,0-1.11.08-1.59.23-.49.15-.96.36-1.43.63l-.93-4.08c.57-.31,1.26-.56,2.06-.76.8-.2,1.65-.3,2.55-.3,1,0,1.89.12,2.69.36.8.24,1.48.59,2.04,1.03.56.44,1,.98,1.29,1.61.3.63.45,1.32.45,2.07,0,.55-.09,1.06-.27,1.51-.18.45-.41.85-.7,1.2-.29.34-.61.63-.98.86-.36.23-.72.39-1.08.48.55.13,1.11.35,1.68.66.56.31,1.07.71,1.51,1.21.44.5.8,1.09,1.08,1.76.28.68.42,1.43.42,2.27,0,1.11-.19,2.09-.58,2.95Z" fill="#323337" stroke-width="0"/>
    <path d="m41.44,28.41c-.4.91-.95,1.67-1.64,2.3-.69.63-1.51,1.12-2.45,1.46-.94.34-1.94.51-3,.51s-2.02-.18-2.95-.53c-.93-.35-1.74-.87-2.44-1.54-.7-.67-1.24-1.51-1.64-2.5-.4-1-.6-2.14-.6-3.42,0-1.41.22-2.82.66-4.21.44-1.39,1.06-2.72,1.86-3.98.8-1.26,1.74-2.43,2.84-3.5,1.09-1.07,2.29-2,3.6-2.77l4.94,1.56c-1.79.95-3.33,2.02-4.63,3.22-1.29,1.19-2.32,2.52-3.07,3.98.35-.18.73-.31,1.14-.39.41-.09.87-.13,1.38-.13.8,0,1.59.16,2.37.46s1.49.76,2.12,1.34c.63.59,1.14,1.31,1.53,2.17.39.86.58,1.85.58,2.95s-.2,2.11-.6,3.02Zm-4.86-5.01c-.56-.57-1.28-.86-2.14-.86-.62,0-1.22.16-1.79.46-.57.31-.98.85-1.23,1.63v.69c0,.49.09.94.27,1.35.18.41.41.76.7,1.06.29.3.62.53.99.7.38.16.76.25,1.16.25.75,0,1.42-.28,2.01-.83.59-.55.88-1.3.88-2.22s-.28-1.65-.85-2.22Z" fill="#323337" stroke-width="0"/>
    <path d="m58.63,26.52c-.4,1.39-.95,2.55-1.64,3.47-.7.92-1.5,1.6-2.42,2.04-.92.44-1.9.66-2.94.66s-2.02-.22-2.95-.66c-.93-.44-1.74-1.12-2.44-2.04-.7-.92-1.24-2.07-1.64-3.47-.4-1.39-.6-3.04-.6-4.94s.2-3.52.6-4.91c.4-1.39.95-2.55,1.64-3.47.7-.92,1.51-1.6,2.44-2.04.93-.44,1.91-.66,2.95-.66s2.02.22,2.94.66c.92.44,1.73,1.12,2.42,2.04.7.92,1.24,2.07,1.64,3.47.4,1.39.6,3.03.6,4.91s-.2,3.55-.6,4.94Zm-5.04-10.13c-.55-1.14-1.21-1.71-1.96-1.71s-1.41.57-1.96,1.73c-.55,1.15-.83,2.88-.83,5.18s.28,4.08.83,5.21c.55,1.13,1.21,1.69,1.96,1.69s1.4-.56,1.96-1.69c.55-1.13.83-2.86.83-5.21s-.28-4.05-.83-5.19Z" fill="#323337" stroke-width="0"/>
    <g>
      <path d="m73.82,31.09c-1.12,1.03-2.79,1.54-5.01,1.54-1.03,0-1.99-.13-2.91-.38-.91-.26-1.64-.55-2.19-.87l-.43-4.13c.74.51,1.57.93,2.49,1.25.92.32,1.84.48,2.75.48.8,0,1.42-.17,1.88-.5.46-.33.68-.77.68-1.32s-.18-.96-.53-1.28c-.35-.32-.95-.6-1.81-.83-1.78-.49-3.1-1.22-3.94-2.18-.85-.96-1.27-2.13-1.27-3.52,0-.76.14-1.47.41-2.12.28-.65.67-1.23,1.2-1.72.52-.5,1.17-.88,1.94-1.17.77-.29,1.65-.43,2.64-.43,1.04,0,1.97.12,2.78.36.81.24,1.4.46,1.78.67l-.8,3.56c-.38-.21-.9-.42-1.55-.63-.65-.21-1.29-.31-1.92-.31-.78,0-1.36.15-1.72.46-.36.3-.54.67-.54,1.11s.18.82.56,1.08c.37.27.91.5,1.62.71,1.75.49,3.12,1.21,4.1,2.15.98.94,1.47,2.22,1.47,3.83,0,1.77-.56,3.16-1.68,4.19Z" fill="#323337" stroke-width="0"/>
      <path d="m90.43,28.72c-.34.84-.81,1.55-1.41,2.15-.6.6-1.3,1.06-2.09,1.38-.8.33-1.64.49-2.54.49-.68,0-1.33-.09-1.95-.27-.62-.18-1.06-.38-1.33-.59v7.07h-4.07v-19.49h3.68v1.59h.03c.36-.66.89-1.16,1.58-1.48.69-.32,1.5-.48,2.41-.48.8,0,1.57.15,2.31.44.74.29,1.4.73,1.98,1.31.58.58,1.04,1.29,1.4,2.14.35.85.53,1.82.53,2.92,0,1.04-.17,1.98-.51,2.82Zm-4.57-5.06c-.58-.63-1.32-.94-2.23-.94-.61,0-1.12.14-1.54.41-.43.28-.75.58-.98.92v4.05c.21.27.52.52.94.77.42.25.94.37,1.59.37.91,0,1.65-.31,2.23-.93.58-.62.86-1.39.86-2.32s-.29-1.71-.86-2.34Z" fill="#323337" stroke-width="0"/>
      <path d="m101.48,32.94c-.38-.1-.76-.29-1.15-.57-.39-.29-.67-.66-.84-1.14-.28.53-.72.93-1.3,1.18-.58.26-1.27.38-2.06.38-.57,0-1.12-.1-1.64-.29-.52-.19-.98-.47-1.37-.84-.39-.37-.7-.82-.94-1.35-.24-.53-.36-1.13-.36-1.79,0-1.2.41-2.16,1.24-2.9.83-.74,1.89-1.18,3.18-1.31l2.56-.26v-.43c0-.38-.16-.69-.48-.93-.32-.24-.84-.36-1.54-.36-.63,0-1.26.09-1.91.27-.65.18-1.21.42-1.68.73l-.74-3.16c.53-.34,1.21-.62,2.02-.83.82-.21,1.65-.31,2.51-.31s1.64.1,2.35.3,1.33.49,1.85.88c.52.39.93.87,1.21,1.45.28.58.43,1.26.43,2.04v4.22c0,.76.14,1.35.41,1.77.28.42.66.72,1.15.91l-2.91,2.34Zm-2.68-6.21l-1.57.14c-.55.06-.95.25-1.2.57-.25.32-.37.67-.37,1.05,0,.34.12.64.36.88.24.25.56.37.95.37.49,0,.92-.18,1.28-.53.36-.35.54-.8.54-1.35v-1.14Z" fill="#323337" stroke-width="0"/>
      <path d="m114.76,23.62c-.44-.26-.88-.47-1.32-.61-.45-.14-.93-.21-1.44-.21-.46,0-.88.08-1.28.23-.4.15-.75.37-1.04.65-.29.28-.53.62-.7,1.01-.17.39-.26.82-.26,1.29s.09.87.26,1.26c.17.39.41.72.71,1.01.3.28.66.51,1.07.67.41.16.85.24,1.33.24.55,0,1.04-.05,1.48-.16.44-.11.88-.28,1.34-.52l-.37,3.56c-.89.42-1.95.63-3.16.63-.91,0-1.78-.16-2.62-.47-.84-.31-1.58-.76-2.22-1.34-.65-.58-1.16-1.28-1.55-2.11-.39-.83-.58-1.76-.58-2.81s.19-1.98.58-2.82c.39-.84.91-1.55,1.55-2.14.65-.59,1.38-1.03,2.21-1.34.83-.3,1.68-.45,2.55-.45s1.63.08,2.34.24c.7.16,1.34.4,1.91.73l-.77,3.48Z" fill="#323337" stroke-width="0"/>
      <path d="m128.2,24.71c-.02.19-.05.35-.08.48l-1.85,1.88h-6.33c.06.26.18.53.37.79.19.26.45.5.78.72.33.22.72.39,1.17.52.45.13.94.2,1.49.2.67,0,1.32-.09,1.95-.26.64-.18,1.17-.4,1.61-.68l-.4,3.59c-.49.27-1.09.47-1.79.63-.7.15-1.47.23-2.31.23-.99,0-1.91-.17-2.78-.5-.86-.33-1.61-.8-2.25-1.4-.64-.6-1.14-1.33-1.51-2.18-.37-.86-.55-1.81-.55-2.88s.18-1.98.53-2.82c.35-.84.83-1.55,1.44-2.14.61-.59,1.32-1.04,2.14-1.37.82-.32,1.69-.48,2.62-.48s1.69.14,2.41.43c.71.29,1.32.67,1.82,1.14.5.48.89,1.03,1.15,1.65.27.63.4,1.27.4,1.94,0,.15,0,.32-.03.51Zm-4.4-1.95c-.35-.39-.8-.58-1.35-.58-.61,0-1.14.2-1.61.61-.47.41-.77.91-.9,1.5h4.36s0-.08.01-.13c0-.05.01-.1.01-.16,0-.44-.18-.85-.53-1.24Z" fill="#323337" stroke-width="0"/>
      <path d="m138.56,30.05c-.2.5-.51.95-.93,1.34-.42.39-.95.7-1.58.93-.64.23-1.39.34-2.27.34s-1.67-.08-2.32-.26c-.66-.17-1.25-.39-1.78-.66l-.37-3.7c.57.4,1.21.73,1.92,1,.71.27,1.42.4,2.15.4.38,0,.69-.09.92-.26.23-.17.34-.38.34-.63,0-.27-.1-.47-.31-.61-.2-.14-.5-.27-.89-.38-1.25-.36-2.23-.87-2.92-1.53-.69-.65-1.04-1.55-1.04-2.69,0-.63.12-1.2.37-1.71.25-.51.58-.95,1.01-1.31.43-.36.94-.64,1.53-.84.59-.2,1.24-.3,1.94-.3.8,0,1.55.08,2.27.26.71.17,1.23.34,1.55.51l-.71,3.08c-.32-.17-.72-.33-1.19-.48-.47-.15-.96-.23-1.47-.23-.35,0-.63.07-.85.21-.21.14-.32.35-.32.61,0,.44.39.75,1.17.94,1.45.38,2.49.94,3.13,1.67.63.73.95,1.64.95,2.72,0,.55-.1,1.08-.3,1.58Z" fill="#323337" stroke-width="0"/>
    </g>
  </g>
</svg>